<svg width="195" height="41" viewBox="0 0 195 41" fill="none" xmlns="http://www.w3.org/2000/svg">
<g clip-path="url(#clip0_3139_592)">
<path d="M186.437 10.8748L193.614 1.90229H186.886L181.499 9.0791V1.90229H176.118V20.7451H181.499V12.6705L187.335 20.7451H194.063L186.437 10.8748ZM165.515 10.4259H162.881V6.38558H165.515C166.779 6.38558 167.813 7.02943 167.813 8.40572C167.813 9.78202 166.779 10.4259 165.515 10.4259ZM169.467 14.4071C171.829 13.397 173.2 10.9575 173.2 8.18126C173.2 4.53674 170.926 1.90229 166.023 1.90229H157.493V20.7451H162.881V14.9092H163.896L167.795 20.7451H174.08L169.467 14.4071ZM145.154 16.2559C144.177 16.2559 143.222 15.9662 142.41 15.4233C141.598 14.8804 140.965 14.1088 140.591 13.2062C140.218 12.3035 140.12 11.3103 140.311 10.3522C140.502 9.39418 140.973 8.5143 141.664 7.82393C142.356 7.13356 143.236 6.66371 144.194 6.47384C145.153 6.28397 146.146 6.38261 147.048 6.75727C147.95 7.13193 148.721 7.76578 149.263 8.57862C149.805 9.39147 150.093 10.3468 150.092 11.3237C150.091 12.6324 149.57 13.8869 148.644 14.8117C147.718 15.7365 146.463 16.2559 145.154 16.2559ZM145.154 1.45337C139.466 1.45337 134.835 5.8835 134.835 11.3237C134.835 16.7639 139.466 21.194 145.154 21.194C150.842 21.194 155.473 16.7639 155.473 11.3237C155.473 5.8835 150.848 1.45337 145.154 1.45337ZM123.393 1.90229H118.461L115.768 13.1253L112.625 1.90229H106.6L112.879 20.7451H118.491L120.954 11.7726L123.423 20.7451H129.034L135.313 1.90229H129.229L126.087 13.1253L123.393 1.90229Z" fill="#959595"/>
<path d="M139.773 24.5781V26.7518H143.754V39.7882H145.928V26.7518H149.915V24.5781H139.773ZM137.6 26.7518V24.5781H128.911V39.7882H137.6V37.6145H131.102V33.273H136.53V31.0992H131.102V26.7518H137.6ZM125.65 40.1663V24.5781H123.476V34.9919L112.974 24.2178V39.7882H115.148V29.3804L125.65 40.1663Z" fill="#959595"/>
<path fill-rule="evenodd" clip-rule="evenodd" d="M61.974 7.73822L61.5959 8.17533L57.9219 12.4046L37.9213 35.2405C30.4019 43.8527 22.4749 39.2867 16.2727 32.1926L16.6507 31.7614L20.3248 27.5616L34.8734 10.9279C36.7045 8.85461 38.512 6.79313 40.3313 4.69029C47.8566 -3.91598 55.8013 0.650008 61.974 7.73822Z" fill="#959595"/>
<path fill-rule="evenodd" clip-rule="evenodd" d="M33.0836 7.73815L32.6997 8.17526L29.0256 12.4046L23.5618 18.6245L22.5163 19.8058C14.985 28.4298 7.06986 23.8638 0.867676 16.7756L1.24571 16.3385L5.97119 10.9278H6.00072L10.7912 5.44629C10.992 5.18639 11.2047 4.92649 11.4232 4.6725C18.9603 -3.91605 26.8578 0.649937 33.0836 7.73815Z" fill="#959595"/>
<path fill-rule="evenodd" clip-rule="evenodd" d="M81.3896 26.8467C82.6747 26.8467 83.9309 27.2278 84.9995 27.9417C86.068 28.6557 86.9008 29.6704 87.3926 30.8577C87.8843 32.045 88.013 33.3514 87.7623 34.6118C87.5116 35.8722 86.8928 37.03 85.9841 37.9387C85.0754 38.8473 83.9176 39.4662 82.6572 39.7169C81.3968 39.9676 80.0904 39.8389 78.9031 39.3471C77.7159 38.8554 76.7011 38.0226 75.9871 36.954C75.2732 35.8855 74.8921 34.6293 74.8921 33.3442C74.9014 31.6238 75.5889 29.9766 76.8055 28.76C78.022 27.5435 79.6692 26.856 81.3896 26.8467Z" fill="#959595"/>
<path fill-rule="evenodd" clip-rule="evenodd" d="M90.8584 7.73822L90.4803 8.17533L86.8063 12.4046L66.8057 35.2405C59.2745 43.8527 51.3593 39.2867 45.1689 32.1926L45.547 31.7614L49.221 27.5616L63.7578 10.9279C65.5889 8.85461 67.3964 6.79313 69.2157 4.69029C76.741 -3.91598 84.6562 0.650008 90.8584 7.73822Z" fill="#959595"/>
</g>
<defs>
<clipPath id="clip0_3139_592">
<rect width="193.195" height="40.1547" fill="white" transform="translate(0.867676)"/>
</clipPath>
</defs>
</svg>
