<svg width="190" height="56" viewBox="0 0 190 56" fill="none" xmlns="http://www.w3.org/2000/svg">
<path d="M73.8708 31.4705C72.4964 33.6871 69.9516 35.3194 66.7097 35.3194C61.9159 35.3194 58.4241 31.9278 58.4241 27.5581C58.4241 23.4488 61.9159 20.0127 66.7097 20.0127C69.9713 20.0127 72.5425 21.4926 73.9168 23.7092L70.7867 25.4685C70.0634 24.122 68.6495 23.2265 66.7097 23.2265C64.0333 23.2265 62.1592 25.1192 62.1592 27.5517C62.1592 29.9017 64.0267 31.9659 66.7097 31.9659C68.6035 31.9659 69.9976 31.0323 70.7407 29.7239L73.8708 31.4705Z" fill="#959595"/>
<path d="M90.7117 27.6661C90.7117 31.8834 87.1542 35.3194 82.8075 35.3194C78.4148 35.3194 74.9033 31.8834 74.9033 27.6661C74.9033 23.4678 78.4148 20.0127 82.8075 20.0127C87.1542 20.0127 90.7117 23.4742 90.7117 27.6661ZM78.2833 27.6661C78.2833 30.0796 80.3087 32.0167 82.8075 32.0167C85.2603 32.0167 87.2857 30.0796 87.2857 27.6661C87.2857 25.2716 85.2603 23.3408 82.8075 23.3408C80.3087 23.3408 78.2833 25.278 78.2833 27.6661Z" fill="#959595"/>
<path d="M112.011 35.0591H108.296V27.5137L104.626 35.0591H100.503L96.8338 27.5137V35.0591H93.1382V20.2732H97.2349L102.568 31.1276L107.881 20.2732H112.004V35.0591H112.011Z" fill="#959595"/>
<path d="M128.174 25.9704C128.174 28.8856 126.261 31.712 122.342 31.712H119.008V35.0591H115.292V20.2732H122.361C126.281 20.2732 128.174 23.0995 128.174 25.9704ZM119.014 23.5822V28.4347H121.94C123.427 28.4347 124.439 27.5836 124.439 25.9767C124.439 24.3889 123.427 23.6076 121.94 23.5822H119.014Z" fill="#959595"/>
<path d="M134.704 31.7564H142.74V35.0591H131.009V20.2732H134.704V31.7564Z" fill="#959595"/>
<path d="M150.598 29.4765V35.0657H146.883V29.4765L140.353 20.2798H144.607L148.77 26.3263L152.867 20.2798H157.167L150.598 29.4765Z" fill="#959595"/>
<path d="M166.946 32.7602H159.561L158.548 35.0657H154.629L161.179 20.2798H165.302L171.878 35.0657H167.939L166.946 32.7602ZM165.663 29.8449L163.276 24.3192L160.843 29.8449H165.663Z" fill="#959595"/>
<path d="M189.323 35.0591H185.608L177.862 26.0148V35.0591H174.146V20.2732H177.862L185.608 29.2985V20.2732H189.323V35.0591Z" fill="#959595"/>
<path d="M22.612 55.3456C7.09294 46.2314 -1.6727 27.8824 1.22726 10.5686C4.97551 8.71405 8.96048 6.74513 12.9257 4.78892C16.2202 3.15662 19.5016 1.53703 22.6186 0L26.7877 2.05784C29.9441 3.62027 33.4688 5.36054 36.9277 7.06905L44.0099 10.5686C44.2663 12.1946 44.4242 13.8586 44.4965 15.529C44.6214 18.7936 44.3913 22.0392 43.8126 25.1831H30.6674C31.2132 23.0808 31.542 20.9023 31.6407 18.692L31.6538 18.3999L22.612 13.9285L13.5702 18.3999L13.5833 18.692C13.9187 26.2374 17.0028 33.4716 22.2701 39.0608L22.6186 39.4292L22.9671 39.0608C24.8281 37.0855 26.4392 34.8816 27.7412 32.5189H41.7741C38.256 41.9506 31.4763 50.0232 22.612 55.3456ZM22.4016 4.06486C18.4166 6.04013 13.9581 8.2377 9.71014 10.34L4.61383 12.8615L4.58753 13.1028C2.93699 27.6792 9.90741 42.5223 22.349 50.9187L22.6186 51.1029L22.8882 50.9187C28.2607 47.2286 32.7323 42.3127 35.8361 36.7171L36.2043 36.0566H29.8652L29.7271 36.2662C27.7741 39.2831 25.387 41.9951 22.6186 44.3324C14.2738 37.3523 9.53916 26.898 9.90741 16.2404L22.612 9.95891C24.3546 10.8163 26.3865 11.8262 28.4448 12.8424C30.845 14.0301 33.2846 15.2305 35.3232 16.2404C35.3692 17.8981 35.3034 19.5431 35.1193 21.15L35.0601 21.6517H40.6233L40.6628 21.2453C40.7614 20.2671 40.8206 19.2636 40.8469 18.2538C40.8863 16.5453 40.8206 14.8177 40.643 13.1155L40.6167 12.8678L40.3932 12.7535C37.0592 11.1085 33.403 9.29837 29.8126 7.52635L22.612 3.96959L22.4016 4.06486Z" fill="#959595"/>
</svg>
