<svg width="26" height="26" viewBox="0 0 26 26" fill="none" xmlns="http://www.w3.org/2000/svg">
<path d="M25.5503 2.21726C26.0384 1.7291 26.0384 0.937646 25.5503 0.449491C25.0621 -0.0386648 24.2707 -0.0386648 23.7825 0.449491L12.9997 11.2323L2.21689 0.449496C1.72874 -0.0386599 0.93728 -0.0386599 0.449124 0.449496C-0.039031 0.937651 -0.039031 1.72911 0.449124 2.21726L11.2319 13.0001L0.449169 23.7828C-0.0389861 24.271 -0.0389861 25.0624 0.449169 25.5506C0.937325 26.0387 1.72878 26.0387 2.21694 25.5506L12.9997 14.7678L23.7825 25.5506C24.2706 26.0387 25.0621 26.0387 25.5502 25.5506C26.0384 25.0624 26.0384 24.271 25.5502 23.7828L14.7675 13.0001L25.5503 2.21726Z" fill="#3B3B3B"/>
</svg>
