<svg width="18" height="20" viewBox="0 0 18 20" fill="none" xmlns="http://www.w3.org/2000/svg">
<path fill-rule="evenodd" clip-rule="evenodd" d="M0 11C0 14.7497 0 16.6246 0.954915 17.9389C1.26331 18.3634 1.6366 18.7367 2.06107 19.0451C3.3754 20 5.25027 20 9 20C12.7497 20 14.6246 20 15.9389 19.0451C16.3634 18.7367 16.7367 18.3634 17.0451 17.9389C18 16.6246 18 14.7497 18 11V9C18 8.16106 18 7.41596 17.9893 6.75L17.9192 6.75C17.0672 6.75007 16.5482 6.75011 16.1005 6.67921C13.6401 6.28952 11.7105 4.35988 11.3208 1.8995C11.2499 1.45182 11.2499 0.932837 11.25 0.0808201L11.25 0.0106945C10.584 0 9.83894 0 9 0C5.25027 0 3.3754 0 2.06107 0.954914C1.6366 1.26331 1.26331 1.6366 0.954915 2.06107C0 3.3754 0 5.25027 0 9V11ZM9.75 7C9.75 6.58579 9.41422 6.25 9 6.25C8.58579 6.25 8.25 6.58579 8.25 7V13.9362C8.23578 13.9251 8.22128 13.9137 8.20649 13.9018C7.88386 13.6427 7.50033 13.2573 6.93054 12.6824L5.53269 11.272C5.24111 10.9778 4.76624 10.9757 4.47204 11.2673C4.17784 11.5589 4.17573 12.0338 4.46731 12.328L5.89564 13.7691C6.42703 14.3053 6.87022 14.7525 7.26724 15.0713C7.68367 15.4057 8.12131 15.6601 8.6545 15.7281C8.88392 15.7573 9.11608 15.7573 9.3455 15.7281C9.87869 15.6601 10.3163 15.4057 10.7328 15.0713C11.1298 14.7525 11.5729 14.3053 12.1043 13.7691L13.5327 12.328C13.8243 12.0338 13.8222 11.5589 13.528 11.2673C13.2338 10.9757 12.7589 10.9778 12.4673 11.272L11.0695 12.6824C10.4997 13.2573 10.1161 13.6427 9.79351 13.9018C9.77872 13.9137 9.76422 13.9251 9.75 13.9362V7Z" fill="#FAFAFA"/>
<path d="M16.3352 5.19768C16.6435 5.24652 17.0243 5.24987 17.9347 5.25C17.8403 3.81037 17.6094 2.83783 17.0451 2.06107C16.7367 1.6366 16.3634 1.26331 15.9389 0.954914C15.1622 0.390566 14.1896 0.159744 12.75 0.0653362C12.7501 0.975676 12.7535 1.35645 12.8023 1.66485C13.0904 3.48339 14.5166 4.90965 16.3352 5.19768Z" fill="#FAFAFA"/>
</svg>
