<svg width="1728" height="1013" viewBox="0 0 1728 1013" fill="none" xmlns="http://www.w3.org/2000/svg">
<g opacity="0.24">
<circle cx="231.023" cy="506.023" r="505.773" stroke="#505764" stroke-width="0.5"/>
<circle cx="1242.08" cy="506.023" r="505.773" stroke="#505764" stroke-width="0.5"/>
<circle cx="232.012" cy="253.012" r="252.762" stroke="#505764" stroke-width="0.5"/>
<circle cx="232.012" cy="759.035" r="252.762" stroke="#505764" stroke-width="0.5"/>
<rect x="-275" y="506.391" width="2278" height="1" fill="#505764"/>
<circle cx="738.035" cy="253.012" r="252.762" stroke="#505764" stroke-width="0.5"/>
<circle cx="1244.01" cy="253.012" r="252.762" stroke="#505764" stroke-width="0.5"/>
<circle cx="1750.03" cy="253.012" r="252.762" stroke="#505764" stroke-width="0.5"/>
<circle cx="738.035" cy="759.035" r="252.762" stroke="#505764" stroke-width="0.5"/>
<circle cx="1244.01" cy="759.035" r="252.762" stroke="#505764" stroke-width="0.5"/>
<circle cx="1750.03" cy="759.035" r="252.762" stroke="#505764" stroke-width="0.5"/>
<rect x="736.059" width="0.988327" height="1012.05" fill="#505764"/>
<rect x="484.035" width="0.988327" height="1012.05" fill="#505764"/>
<rect width="0.937081" height="1002.68" transform="matrix(-1 0 0 1 991.933 0)" fill="#505764"/>
<rect width="1" height="1006" transform="matrix(-1 0 0 1 1245 0.390869)" fill="#505764"/>
<path d="M1498 0H1497V1012H1498V0Z" fill="#505764"/>
<rect x="231.023" width="0.988327" height="1012.05" fill="#505764"/>
<rect x="-275" y="253.391" width="2278" height="1" fill="#505764"/>
<rect x="-275" y="759.391" width="2278" height="1" fill="#505764"/>
</g>
</svg>
