<svg width="155" height="46" viewBox="0 0 155 46" fill="none" xmlns="http://www.w3.org/2000/svg">
<g clip-path="url(#clip0_4025_286)">
<path d="M18.5094 37.7349C15.4639 37.6389 12.5753 36.3669 10.455 34.188C8.33477 32.009 7.14918 29.0942 7.14918 26.0603C7.14918 23.0264 8.33477 20.1115 10.455 17.9326C12.5753 15.7537 15.4639 14.4816 18.5094 14.3857V17.3198C16.1784 17.3198 13.9429 18.2418 12.2947 19.8829C10.6464 21.524 9.72043 23.7499 9.72043 26.0708C9.72043 28.3917 10.6464 30.6175 12.2947 32.2587C13.9429 33.8998 16.1784 34.8218 18.5094 34.8218V37.7349ZM18.5094 31.3013C17.1326 31.2723 15.822 30.7074 14.8586 29.7277C13.8951 28.748 13.3556 27.4314 13.3556 26.0603C13.3556 24.6891 13.8951 23.3726 14.8586 22.3928C15.822 21.4131 17.1326 20.8482 18.5094 20.8193V23.744C17.8921 23.744 17.3001 23.9882 16.8636 24.4228C16.4271 24.8574 16.1819 25.4468 16.1819 26.0614C16.1819 26.676 16.4271 27.2655 16.8636 27.7001C17.3001 28.1347 17.8921 28.3788 18.5094 28.3788V31.3013ZM35.2145 34.1046C34.1124 36.3591 32.5623 38.3675 30.658 40.0082C28.7537 41.6489 26.5348 42.8878 24.1356 43.6498C23.596 43.8204 23.0493 43.9629 22.4933 44.082L22.4252 44.0983H22.3736C19.8286 44.647 17.196 44.6556 14.6474 44.1235C12.0989 43.5914 9.69148 42.5306 7.58218 41.0103C5.47288 39.4899 3.709 37.544 2.40549 35.2995C1.10197 33.055 0.288077 30.5622 0.0168407 27.9835C-0.254395 25.4049 0.0231151 22.7983 0.831287 20.3336C1.63946 17.8689 2.96015 15.6014 4.70731 13.6788C6.45446 11.7563 8.58887 10.2219 10.9714 9.1756C13.354 8.12931 15.9312 7.59462 18.5352 7.60637H18.561C18.7159 7.60637 18.8731 7.60637 19.0303 7.60637C20.4045 7.64344 21.7705 7.83147 23.1033 8.16703V0.5L24.7152 0.66119C30.1006 1.20718 35.0912 3.72294 38.7211 7.72159C42.3509 11.7202 44.3619 16.9174 44.3648 22.3073V23.7674H22.7795V20.845H41.3757C41.0558 16.7206 39.3808 12.816 36.6095 9.73411C33.8383 6.65225 30.1249 4.56468 26.0431 3.79388V9.18556C28.2724 10.1702 30.2836 11.5851 31.9603 13.3485L31.9814 13.3765L32.0002 13.3952L30.2218 15.0795L29.8839 15.4159L29.8604 15.3879C28.4546 13.9028 26.7679 12.7091 24.8972 11.8752C23.0265 11.0413 21.0087 10.5838 18.9599 10.5288H18.561H18.5352C14.3972 10.5288 10.4286 12.1655 7.50263 15.0789C4.57661 17.9923 2.93279 21.9436 2.93279 26.0638C2.93279 30.1839 4.57661 34.1353 7.50263 37.0487C10.4286 39.962 14.3972 41.5987 18.5352 41.5987C19.2327 41.5986 19.9294 41.5534 20.621 41.4632H20.689H20.7172C21.5771 41.3431 22.4255 41.1516 23.2535 40.8909C24.5035 40.499 25.6981 39.9495 26.808 39.2556C29.2947 37.7035 31.2937 35.4873 32.5774 32.8594L35.2145 34.1046Z" fill="#FDFDFD"/>
<path d="M150.372 25.0756C150.87 25.0604 151.365 25.1487 151.826 25.335C152.288 25.5212 152.705 25.8013 153.051 26.1573C153.757 26.8799 154.11 27.8774 154.11 29.1498V35.1956H151.566V29.4675C151.585 29.1933 151.547 28.9182 151.455 28.6591C151.363 28.4 151.219 28.1623 151.031 27.9607C150.841 27.7833 150.617 27.6458 150.372 27.5563C150.128 27.4668 149.867 27.4272 149.607 27.4398C149.316 27.4271 149.024 27.4747 148.752 27.5796C148.48 27.6846 148.233 27.8446 148.026 28.0495C147.629 28.456 147.432 29.068 147.432 29.881V35.1979H144.875V25.3513H147.425V26.4539C148.051 25.5335 149.033 25.0741 150.372 25.0756ZM135.926 32.2217C136.174 32.4732 136.472 32.6713 136.8 32.8035C137.128 32.9357 137.48 32.9993 137.834 32.9903C138.189 32.9994 138.543 32.9359 138.873 32.8037C139.203 32.6715 139.503 32.4735 139.753 32.2217C140.247 31.6919 140.522 30.9955 140.522 30.2723C140.522 29.5491 140.247 28.8526 139.753 28.3228C139.503 28.0714 139.203 27.8737 138.873 27.7419C138.543 27.6101 138.189 27.5471 137.834 27.5566C137.48 27.5464 137.128 27.6093 136.8 27.7411C136.471 27.873 136.174 28.071 135.926 28.3228C135.436 28.8546 135.164 29.5503 135.164 30.2723C135.164 30.9942 135.436 31.6899 135.926 32.2217ZM141.557 33.9644C140.567 34.9137 139.243 35.4386 137.869 35.4262C136.494 35.4138 135.18 34.8651 134.207 33.8981C133.235 32.9311 132.682 31.6229 132.668 30.2545C132.654 28.8862 133.179 27.5669 134.131 26.5801C135.121 25.6308 136.446 25.106 137.82 25.1184C139.194 25.1308 140.509 25.6794 141.481 26.6464C142.454 27.6134 143.006 28.9217 143.021 30.29C143.035 31.6583 142.509 32.9776 141.557 33.9644ZM123.834 29.3483H128.876C128.777 28.7535 128.455 28.2183 127.975 27.8509C127.525 27.5233 126.981 27.3502 126.424 27.358C125.814 27.3347 125.214 27.5193 124.723 27.8813C124.261 28.2498 123.946 28.7698 123.834 29.3483ZM123.871 31.3153C124.215 32.5503 125.145 33.1678 126.661 33.1678C127.637 33.1678 128.375 32.8392 128.876 32.182L130.934 33.3641C129.957 34.7657 128.52 35.4666 126.621 35.4666C124.987 35.4666 123.675 34.9744 122.687 33.9901C122.197 33.5035 121.813 32.9222 121.558 32.2822C121.303 31.6422 121.183 30.957 121.204 30.2688C121.184 29.584 121.304 28.9023 121.555 28.2645C121.806 27.6268 122.184 27.0459 122.665 26.5567C123.641 25.5662 124.893 25.071 126.419 25.071C127.09 25.0516 127.757 25.1749 128.376 25.4327C128.995 25.6905 129.552 26.0769 130.009 26.5661C130.95 27.5673 131.456 28.898 131.417 30.2688C131.415 30.6183 131.382 30.9669 131.318 31.3107L123.871 31.3153ZM116.833 35.1956V20.824H119.383V35.1979L116.833 35.1956ZM107.46 29.3554H112.502C112.403 28.7605 112.081 28.2253 111.601 27.8579C111.151 27.5303 110.607 27.3572 110.05 27.365C109.439 27.3417 108.839 27.5263 108.349 27.8883C107.887 28.2546 107.572 28.772 107.457 29.3483L107.46 29.3554ZM107.497 31.3223C107.841 32.5573 108.771 33.1749 110.287 33.1749C111.263 33.1749 112.001 32.8462 112.502 32.189L114.559 33.3711C113.583 34.7727 112.146 35.4736 110.247 35.4736C108.612 35.4736 107.301 34.9814 106.312 33.9972C105.823 33.5105 105.439 32.9292 105.184 32.2892C104.929 31.6492 104.808 30.964 104.829 30.2758C104.809 29.5911 104.927 28.9093 105.177 28.2711C105.427 27.6329 105.803 27.0514 106.284 26.5614C107.26 25.5709 108.511 25.0756 110.038 25.0756C110.709 25.0562 111.376 25.1795 111.995 25.4374C112.614 25.6952 113.171 26.0816 113.628 26.5707C114.569 27.572 115.075 28.9027 115.035 30.2734C115.033 30.6229 115 30.9716 114.937 31.3153L107.497 31.3223ZM99.4307 25.0756C100.563 25.0756 101.47 25.4432 102.15 26.1783C102.83 26.9134 103.17 27.8976 103.168 29.1311V35.2049H100.616V29.318C100.646 28.821 100.492 28.3303 100.182 27.9397C100.026 27.7722 99.8358 27.6412 99.6236 27.5559C99.4114 27.4707 99.1829 27.4334 98.9544 27.4468C98.7001 27.4331 98.446 27.4773 98.2114 27.576C97.9768 27.6748 97.7679 27.8256 97.6007 28.0168C97.2769 28.3968 97.115 28.9481 97.115 29.6707V35.2049H94.5646V29.318C94.5952 28.821 94.4407 28.3303 94.1306 27.9397C93.9754 27.7722 93.7849 27.6412 93.5727 27.5559C93.3605 27.4707 93.1319 27.4334 92.9035 27.4468C92.6495 27.4355 92.3961 27.4808 92.1619 27.5794C91.9277 27.678 91.7185 27.8274 91.5497 28.0168C91.2119 28.3976 91.0453 28.9512 91.0453 29.6707V35.2049H88.4926V25.3513H91.0453V26.3932C91.6381 25.5148 92.5539 25.0756 93.7927 25.0756C95.0049 25.0756 95.902 25.5475 96.4839 26.4913C97.1439 25.5475 98.1262 25.0756 99.4307 25.0756ZM78.9223 32.2708C79.1771 32.5276 79.4824 32.7293 79.8191 32.8632C80.1559 32.997 80.5167 33.0602 80.8791 33.0487C81.2432 33.0599 81.6057 32.9966 81.9443 32.8628C82.2828 32.729 82.5903 32.5275 82.8476 32.2708C83.3503 31.7256 83.6292 31.0124 83.6292 30.2723C83.6292 29.5321 83.3503 28.819 82.8476 28.2737C82.5903 28.017 82.2828 27.8156 81.9443 27.6818C81.6057 27.548 81.2432 27.4847 80.8791 27.4958C80.5167 27.4843 80.1559 27.5475 79.8191 27.6814C79.4824 27.8152 79.1771 28.0169 78.9223 28.2737C78.4256 28.8219 78.1506 29.534 78.1506 30.2723C78.1506 31.0106 78.4256 31.7227 78.9223 32.2708ZM83.6289 25.3513H86.1792V35.1956H83.6289V34.0275C82.864 34.9853 81.7894 35.4642 80.4052 35.4642C79.7647 35.4693 79.1305 35.3374 78.5456 35.0775C77.9607 34.8175 77.4387 34.4356 77.0149 33.9574C76.1038 32.9415 75.6002 31.6272 75.6002 30.2653C75.6002 28.9033 76.1038 27.589 77.0149 26.5731C77.4388 26.0952 77.9609 25.7136 78.5458 25.4541C79.1307 25.1945 79.7648 25.0631 80.4052 25.0686C81.7894 25.0686 82.864 25.5475 83.6289 26.5053V25.3513ZM70.2014 25.0756C70.699 25.0604 71.1943 25.1487 71.6557 25.335C72.1171 25.5212 72.5343 25.8013 72.8808 26.1573C73.5862 26.8799 73.939 27.8774 73.939 29.1498V35.1956H71.3886V29.4675C71.4073 29.1933 71.3695 28.9182 71.2775 28.6591C71.1855 28.4 71.0413 28.1623 70.8537 27.9607C70.6634 27.7833 70.4393 27.6458 70.1947 27.5563C69.95 27.4668 69.6898 27.4272 69.4295 27.4398C69.1378 27.4262 68.8465 27.4734 68.5742 27.5784C68.3019 27.6834 68.0546 27.8439 67.8481 28.0495C67.4516 28.456 67.2545 29.068 67.2545 29.881V35.1979H64.7042V21.415H67.2545V26.4539C67.8739 25.5335 68.8562 25.0741 70.2014 25.0756ZM57.0297 35.4712C54.9478 35.4712 53.2272 34.7821 51.868 33.4038C51.2008 32.7334 50.6766 31.9356 50.3266 31.0585C49.9766 30.1814 49.8082 29.243 49.8315 28.2994C49.8315 26.2655 50.5103 24.5625 51.868 23.1904C53.2257 21.8184 54.9462 21.1323 57.0297 21.1323C58.2435 21.1226 59.4394 21.4243 60.5021 22.0084C61.5304 22.56 62.3879 23.3806 62.9821 24.3818L60.6358 25.7391C60.2978 25.1276 59.7905 24.6256 59.1741 24.2931C58.5186 23.9389 57.7825 23.7587 57.0367 23.7698C55.6931 23.7698 54.6092 24.1903 53.7849 25.0313C52.9605 25.8723 52.5484 26.9624 52.5484 28.3018C52.5484 29.6271 52.9605 30.7103 53.7849 31.5513C54.6092 32.3923 55.6931 32.812 57.0367 32.8104C57.7852 32.8215 58.5241 32.6422 59.1835 32.2895C59.7976 31.9656 60.3026 31.4693 60.6358 30.8621L62.9821 32.2194C62.3908 33.2233 61.5369 34.0484 60.5115 34.6069C59.4454 35.1897 58.2458 35.4875 57.0297 35.4712Z" fill="#FDFDFD"/>
<path d="M101.395 41.7996V41.1992H101.8V44.2688H101.395V43.6685C101.267 43.8824 101.084 44.0581 100.865 44.177C100.646 44.2958 100.398 44.3534 100.149 44.3436C99.9385 44.3467 99.7299 44.3069 99.5358 44.2265C99.3417 44.1461 99.1662 44.027 99.0202 43.8764C98.7207 43.5709 98.553 43.1609 98.553 42.734C98.553 42.3071 98.7207 41.8972 99.0202 41.5917C99.1662 41.4411 99.3417 41.3219 99.5358 41.2416C99.7299 41.1612 99.9385 41.1214 100.149 41.1245C100.398 41.1142 100.646 41.1715 100.865 41.2904C101.085 41.4093 101.268 41.5853 101.395 41.7996ZM99.3158 43.6007C99.5473 43.8239 99.8569 43.9487 100.179 43.9487C100.501 43.9487 100.811 43.8239 101.043 43.6007C101.156 43.4869 101.246 43.3516 101.306 43.2027C101.367 43.0539 101.397 42.8946 101.395 42.734C101.395 42.4131 101.267 42.1053 101.039 41.8784C100.811 41.6514 100.502 41.5239 100.179 41.5239C99.8569 41.5239 99.5477 41.6514 99.3198 41.8784C99.0919 42.1053 98.9639 42.4131 98.9639 42.734C98.9616 42.8946 98.9916 43.0539 99.052 43.2027C99.1124 43.3516 99.2021 43.4869 99.3158 43.6007Z" fill="#FDFDFD"/>
<path d="M106.631 44.3436C106.416 44.3486 106.203 44.3098 106.003 44.2294C105.804 44.1491 105.623 44.0289 105.472 43.8764C105.321 43.7261 105.201 43.5468 105.12 43.3493C105.039 43.1518 105 42.9402 105.003 42.727C105 42.5142 105.04 42.3031 105.121 42.1061C105.202 41.909 105.321 41.7301 105.473 41.58C105.624 41.4299 105.804 41.3116 106.003 41.2321C106.201 41.1527 106.413 41.1137 106.627 41.1174C106.915 41.1133 107.199 41.1885 107.448 41.3347C107.681 41.4716 107.866 41.6763 107.978 41.9211L107.645 42.1126C107.563 41.9276 107.423 41.7737 107.246 41.6734C107.058 41.564 106.844 41.5074 106.627 41.5099C106.466 41.5096 106.308 41.5409 106.16 41.602C106.012 41.6632 105.877 41.7529 105.764 41.8661C105.651 41.9793 105.562 42.1136 105.501 42.2614C105.441 42.4092 105.41 42.5674 105.411 42.727C105.409 42.8875 105.439 43.0469 105.5 43.1957C105.56 43.3445 105.65 43.4798 105.763 43.5937C105.876 43.7073 106.01 43.7968 106.159 43.8567C106.307 43.9166 106.467 43.9455 106.627 43.9418C106.842 43.9449 107.055 43.89 107.241 43.7829C107.422 43.6781 107.57 43.5252 107.668 43.3414L108.009 43.5376C107.882 43.782 107.687 43.9848 107.448 44.1216C107.2 44.2666 106.919 44.3432 106.631 44.3436Z" fill="#FDFDFD"/>
<path d="M113.75 41.7996V41.1992H114.156V44.2688H113.75V43.6685C113.623 43.8824 113.44 44.0581 113.22 44.177C113.001 44.2958 112.753 44.3534 112.504 44.3436C112.294 44.3467 112.085 44.3069 111.891 44.2265C111.697 44.1461 111.521 44.027 111.375 43.8764C111.079 43.5695 110.913 43.1601 110.913 42.734C110.913 42.308 111.079 41.8986 111.375 41.5917C111.521 41.4411 111.697 41.3219 111.891 41.2416C112.085 41.1612 112.294 41.1214 112.504 41.1245C112.754 41.1142 113.001 41.1715 113.221 41.2904C113.44 41.4093 113.623 41.5853 113.75 41.7996ZM111.68 43.6007C111.912 43.8239 112.222 43.9487 112.544 43.9487C112.866 43.9487 113.176 43.8239 113.407 43.6007C113.521 43.4869 113.611 43.3516 113.671 43.2027C113.731 43.0539 113.761 42.8946 113.759 42.734C113.759 42.4131 113.631 42.1053 113.403 41.8784C113.175 41.6514 112.866 41.5239 112.544 41.5239C112.222 41.5239 111.912 41.6514 111.684 41.8784C111.457 42.1053 111.328 42.4131 111.328 42.734C111.326 42.8946 111.356 43.0539 111.417 43.2027C111.477 43.3516 111.567 43.4869 111.68 43.6007Z" fill="#FDFDFD"/>
<path d="M120.202 41.7997V39.9799H120.61V44.2783H120.202V43.6779C120.075 43.8918 119.892 44.0675 119.672 44.1864C119.453 44.3053 119.206 44.3628 118.956 44.353C118.746 44.3561 118.537 44.3163 118.343 44.2359C118.149 44.1555 117.974 44.0364 117.828 43.8858C117.531 43.5789 117.365 43.1695 117.365 42.7434C117.365 42.3174 117.531 41.908 117.828 41.6011C117.974 41.4505 118.149 41.3313 118.343 41.251C118.537 41.1706 118.746 41.1308 118.956 41.1339C119.205 41.1226 119.452 41.1786 119.671 41.2958C119.891 41.413 120.074 41.5871 120.202 41.7997ZM118.123 43.6008C118.355 43.824 118.664 43.9488 118.987 43.9488C119.309 43.9488 119.619 43.824 119.85 43.6008C119.964 43.4869 120.053 43.3516 120.114 43.2028C120.174 43.054 120.204 42.8946 120.202 42.7341C120.202 42.4132 120.074 42.1054 119.846 41.8784C119.618 41.6515 119.309 41.524 118.987 41.524C118.664 41.524 118.355 41.6515 118.127 41.8784C117.899 42.1054 117.771 42.4132 117.771 42.7341C117.769 42.8946 117.799 43.054 117.859 43.2028C117.92 43.3516 118.01 43.4869 118.123 43.6008Z" fill="#FDFDFD"/>
<path d="M125.427 41.1245C125.636 41.1162 125.844 41.1557 126.035 41.2399C126.226 41.3241 126.395 41.4509 126.53 41.6104C126.811 41.9215 126.963 42.3271 126.957 42.7457C126.957 42.7667 126.957 42.8298 126.945 42.9373H124.235C124.267 43.2244 124.409 43.4881 124.632 43.6731C124.867 43.862 125.162 43.9599 125.464 43.9488C125.663 43.9653 125.861 43.925 126.037 43.8327C126.213 43.7404 126.359 43.5999 126.457 43.4278L126.813 43.6357C126.679 43.8574 126.486 44.0377 126.255 44.1567C126.009 44.2835 125.735 44.3477 125.457 44.3436C125.238 44.3505 125.02 44.3127 124.816 44.2323C124.612 44.1519 124.427 44.0308 124.273 43.8764C123.981 43.5629 123.82 43.1517 123.82 42.7247C123.82 42.2977 123.981 41.8864 124.273 41.573C124.423 41.4229 124.604 41.3055 124.803 41.2283C125.001 41.1512 125.214 41.1158 125.427 41.1245ZM125.427 41.5169C125.133 41.5072 124.845 41.6081 124.622 41.7996C124.405 41.9911 124.267 42.2557 124.235 42.5425H126.537C126.51 42.2532 126.376 41.9842 126.161 41.7879C125.958 41.6115 125.697 41.5152 125.427 41.5169Z" fill="#FDFDFD"/>
<path d="M133.421 41.1246C133.576 41.1175 133.732 41.1434 133.876 41.2006C134.021 41.2578 134.152 41.345 134.261 41.4563C134.479 41.703 134.592 42.0249 134.575 42.3534V44.2689H134.167V42.3534C134.18 42.1306 134.108 41.9111 133.965 41.739C133.895 41.6645 133.81 41.606 133.715 41.5677C133.62 41.5293 133.518 41.5121 133.416 41.517C133.298 41.5113 133.179 41.532 133.07 41.5777C132.961 41.6234 132.863 41.6929 132.785 41.781C132.615 42.0075 132.532 42.2865 132.55 42.5683V44.2689H132.144V42.3534C132.158 42.1313 132.089 41.9119 131.952 41.7366C131.886 41.6627 131.804 41.6046 131.712 41.5666C131.62 41.5285 131.521 41.5116 131.422 41.517C131.302 41.5137 131.183 41.5362 131.073 41.583C130.963 41.6298 130.864 41.6997 130.783 41.788C130.603 42.0067 130.513 42.2858 130.532 42.5683V44.2689H130.126V41.1993H130.532V41.6455C130.628 41.4835 130.766 41.3498 130.931 41.2583C131.096 41.1667 131.282 41.1206 131.471 41.1246C131.666 41.1084 131.862 41.1535 132.03 41.2536C132.199 41.3538 132.331 41.5039 132.409 41.6829C132.508 41.5048 132.656 41.3581 132.835 41.2594C133.013 41.1607 133.216 41.1139 133.421 41.1246Z" fill="#FDFDFD"/>
<path d="M139.054 43.7714L140.053 41.2017H140.485L139.164 44.5539C139.061 44.8365 138.882 45.0859 138.648 45.2758C138.445 45.4455 138.183 45.5294 137.918 45.5094V45.1193C138.289 45.1629 138.57 44.9503 138.763 44.4815L138.843 44.29L137.461 41.2017H137.892L139.054 43.7714Z" fill="#FDFDFD"/>
<path d="M53.9632 44.3436C53.7482 44.3487 53.5344 44.3098 53.3351 44.2295C53.1357 44.1491 52.955 44.0289 52.8041 43.8764C52.6526 43.7258 52.5329 43.5466 52.4523 43.3491C52.3717 43.1517 52.3318 42.9401 52.3349 42.727C52.3353 42.4426 52.4108 42.1634 52.5539 41.9172C52.697 41.6711 52.9026 41.4668 53.1501 41.3248C53.3975 41.1828 53.6781 41.108 53.9638 41.1082C54.2494 41.1083 54.53 41.1832 54.7773 41.3254C55.0106 41.4616 55.1959 41.6664 55.3076 41.9117L54.9744 42.1033C54.8934 41.9181 54.7543 41.764 54.5779 41.6641C54.3892 41.5549 54.1744 41.4984 53.9561 41.5006C53.7958 41.5003 53.6371 41.5316 53.489 41.5927C53.341 41.6539 53.2066 41.7436 53.0936 41.8568C52.9805 41.97 52.8912 42.1043 52.8306 42.2521C52.7701 42.3998 52.7395 42.5581 52.7408 42.7177C52.7385 42.8782 52.7685 43.0375 52.8289 43.1864C52.8894 43.3352 52.979 43.4705 53.0927 43.5844C53.2861 43.7696 53.5342 43.8881 53.8004 43.9221C54.0666 43.9562 54.3367 43.9041 54.5708 43.7736C54.7523 43.6689 54.901 43.516 55.0002 43.3321L55.3381 43.5283C55.2115 43.7727 55.0168 43.9755 54.7773 44.1123C54.5316 44.2605 54.2504 44.3403 53.9632 44.3436Z" fill="#FDFDFD"/>
<path d="M58.8762 41.1993V41.7085C58.9639 41.5286 59.1037 41.379 59.2777 41.2791C59.4517 41.1791 59.6518 41.1334 59.8522 41.1479V41.5403C59.593 41.5294 59.34 41.621 59.1483 41.795C59.0542 41.8976 58.9822 42.0183 58.9366 42.1497C58.891 42.281 58.8728 42.4203 58.8832 42.5589V44.2666H58.4773V41.1993H58.8762Z" fill="#FDFDFD"/>
<path d="M64.1764 41.1245C64.3853 41.1162 64.5933 41.1557 64.7844 41.2399C64.9756 41.3241 65.1448 41.4509 65.2791 41.6104C65.5605 41.9215 65.713 42.3271 65.7061 42.7457C65.7061 42.7667 65.7061 42.8298 65.6944 42.9373H62.9845C63.0161 43.2244 63.1582 43.4881 63.381 43.6731C63.6162 43.862 63.912 43.9599 64.2139 43.9488C64.4121 43.9656 64.6109 43.9254 64.7868 43.8331C64.9627 43.7407 65.1084 43.6001 65.2064 43.4278L65.563 43.6357C65.4288 43.8574 65.2355 44.0377 65.0046 44.1567C64.7582 44.2835 64.4842 44.3477 64.2069 44.3436C63.9878 44.3505 63.7696 44.3127 63.5658 44.2323C63.362 44.1519 63.1769 44.0308 63.022 43.8764C62.7308 43.5629 62.5691 43.1517 62.5691 42.7247C62.5691 42.2977 62.7308 41.8864 63.022 41.573C63.1729 41.4229 63.3534 41.3055 63.552 41.2283C63.7507 41.1512 63.9633 41.1158 64.1764 41.1245ZM64.1764 41.5169C63.882 41.5072 63.5947 41.6081 63.3716 41.7996C63.1549 41.9911 63.017 42.2557 62.9845 42.5425H65.2862C65.2596 42.2532 65.1258 41.9842 64.9108 41.7879C64.7073 41.6115 64.4462 41.5152 64.1764 41.5169Z" fill="#FDFDFD"/>
<path d="M71.5342 41.7997V41.1993H71.9425V44.2689H71.5342V43.6685C71.4072 43.8827 71.2243 44.0585 71.0049 44.1774C70.7856 44.2963 70.5379 44.3537 70.2884 44.3437C70.0782 44.3465 69.8697 44.3065 69.6756 44.2262C69.4815 44.1458 69.306 44.0268 69.1598 43.8764C68.8631 43.5696 68.6973 43.1601 68.6973 42.7341C68.6973 42.3081 68.8631 41.8986 69.1598 41.5917C69.306 41.4414 69.4815 41.3224 69.6756 41.242C69.8697 41.1617 70.0782 41.1217 70.2884 41.1245C70.538 41.114 70.7858 41.1712 71.0053 41.2901C71.2248 41.4091 71.4076 41.5852 71.5342 41.7997ZM69.4484 43.6008C69.6803 43.8241 69.9904 43.949 70.313 43.949C70.6357 43.949 70.9457 43.8241 71.1776 43.6008C71.2909 43.4868 71.3803 43.3514 71.4403 43.2026C71.5003 43.0538 71.5299 42.8945 71.5272 42.7341C71.5344 42.5709 71.5083 42.4079 71.4506 42.2549C71.3928 42.102 71.3045 41.9623 71.1911 41.8443C71.0776 41.7262 70.9413 41.6323 70.7904 41.5681C70.6395 41.5039 70.4771 41.4708 70.313 41.4708C70.1489 41.4708 69.9865 41.5039 69.8356 41.5681C69.6847 41.6323 69.5484 41.7262 69.435 41.8443C69.3215 41.9623 69.2332 42.102 69.1755 42.2549C69.1177 42.4079 69.0916 42.5709 69.0988 42.7341C69.0961 42.8945 69.1257 43.0538 69.1857 43.2026C69.2458 43.3514 69.3351 43.4868 69.4484 43.6008Z" fill="#FDFDFD"/>
<path d="M76.9704 41.1992V41.5917H76.0812V43.4605C76.0688 43.5884 76.1038 43.7164 76.1797 43.8203C76.2184 43.8585 76.2647 43.8883 76.3156 43.9076C76.3665 43.9269 76.421 43.9354 76.4754 43.9324C76.6068 43.9324 76.7733 43.9324 76.9704 43.9324V44.2875C76.6429 44.3677 76.2976 44.3339 75.992 44.1917C75.8795 44.1104 75.7908 44.0006 75.7351 43.8737C75.6794 43.7468 75.6588 43.6074 75.6753 43.4699V41.601H75.0254V41.2086H75.6753V40.4704L76.0812 40.3489V41.2086L76.9704 41.1992Z" fill="#FDFDFD"/>
<path d="M80.6773 40.2531C80.6782 40.2919 80.671 40.3304 80.656 40.3662C80.6411 40.402 80.6188 40.4343 80.5905 40.461C80.5636 40.489 80.5312 40.5112 80.4952 40.526C80.4593 40.5409 80.4206 40.5482 80.3817 40.5475C80.3427 40.5478 80.304 40.5404 80.2679 40.5257C80.2317 40.5111 80.1989 40.4894 80.1712 40.4621C80.1435 40.4347 80.1215 40.4022 80.1065 40.3663C80.0915 40.3304 80.0837 40.292 80.0837 40.2531C80.0834 40.2141 80.0909 40.1753 80.1058 40.1392C80.1207 40.1031 80.1426 40.0702 80.1703 40.0426C80.1981 40.015 80.231 39.9932 80.2673 39.9784C80.3036 39.9636 80.3425 39.9561 80.3817 39.9564C80.4206 39.9562 80.459 39.9638 80.4949 39.9786C80.5308 39.9935 80.5633 40.0153 80.5905 40.0429C80.6187 40.0701 80.641 40.1028 80.6559 40.139C80.6708 40.1752 80.6781 40.214 80.6773 40.2531ZM80.5835 44.2688H80.1776V41.1992H80.5835V44.2688Z" fill="#FDFDFD"/>
<path d="M85.1189 43.846L86.1981 41.1992H86.6299L85.3652 44.2688H84.8725L83.6079 41.1992H84.0396L85.1189 43.846Z" fill="#FDFDFD"/>
<path d="M90.9537 41.1245C91.1629 41.1164 91.3712 41.1559 91.5627 41.2401C91.7543 41.3243 91.9239 41.451 92.0588 41.6104C92.3385 41.9224 92.4901 42.3276 92.4835 42.7457C92.4835 42.7668 92.4835 42.8298 92.4717 42.9373H89.7642C89.794 43.2244 89.9355 43.4886 90.1584 43.6732C90.3935 43.862 90.6893 43.9599 90.9913 43.9488C91.1894 43.9656 91.3882 43.9255 91.5642 43.8331C91.7401 43.7408 91.8857 43.6001 91.9837 43.4279L92.3404 43.6358C92.2062 43.8567 92.0139 44.0368 91.7843 44.1567C91.537 44.2833 91.2623 44.3475 90.9842 44.3436C90.7652 44.3506 90.547 44.3127 90.3432 44.2323C90.1394 44.152 89.9543 44.0308 89.7994 43.8764C89.5082 43.563 89.3464 43.1517 89.3464 42.7247C89.3464 42.2977 89.5082 41.8865 89.7994 41.573C89.9504 41.4232 90.1309 41.306 90.3295 41.2288C90.5282 41.1516 90.7407 41.1161 90.9537 41.1245ZM90.9537 41.517C90.6594 41.5073 90.3721 41.6082 90.149 41.7996C89.9318 41.9905 89.7945 42.2556 89.7642 42.5425H92.0635C92.0369 42.2533 91.9031 41.9842 91.6881 41.7879C91.4846 41.6116 91.2235 41.5152 90.9537 41.517Z" fill="#FDFDFD"/>
</g>
<defs>
<clipPath id="clip0_4025_286">
<rect width="154.11" height="45" fill="white" transform="translate(0 0.5)"/>
</clipPath>
</defs>
</svg>
