<svg width="18" height="20" viewBox="0 0 18 20" fill="none" xmlns="http://www.w3.org/2000/svg">
<path fill-rule="evenodd" clip-rule="evenodd" d="M8.72834 19.9137C8.83908 19.9715 8.96291 20.0009 9.08674 20C9.21057 19.999 9.33339 19.9686 9.44514 19.9097L13.013 18.0025C14.0248 17.4631 14.8171 16.8601 15.4352 16.1579C16.7792 14.6282 17.5131 12.6758 17.5001 10.6626L17.4578 4.02198C17.4537 3.25711 16.9514 2.57461 16.2084 2.32652L9.57098 0.0995642C9.17131 -0.0357592 8.73337 -0.0328174 8.34075 0.106428L1.72849 2.41281C0.989543 2.67071 0.496242 3.35811 0.500269 4.12397L0.542552 10.7597C0.555639 12.7758 1.31472 14.7194 2.68086 16.2335C3.30504 16.9258 4.10439 17.52 5.12724 18.0505L8.72834 19.9137ZM7.78385 12.1089C7.93285 12.2521 8.12614 12.3227 8.31944 12.3207C8.51273 12.3198 8.70502 12.2472 8.852 12.1021L12.7511 8.2581C13.0441 7.96882 13.041 7.50402 12.7451 7.21866C12.4481 6.9333 11.9699 6.93527 11.6769 7.22454L8.30836 10.5449L6.92913 9.21909C6.63214 8.93374 6.15495 8.93668 5.86098 9.22596C5.56802 9.51524 5.57104 9.98004 5.86803 10.2654L7.78385 12.1089Z" fill="#E01664"/>
</svg>
