<svg width="42" height="46" viewBox="0 0 42 46" fill="none" xmlns="http://www.w3.org/2000/svg">
<path fill-rule="evenodd" clip-rule="evenodd" d="M14.1683 5.28343C16.1297 -1.58959 25.8701 -1.58959 27.8316 5.28343C28.458 7.47832 30.713 8.78023 32.927 8.22526C39.86 6.48743 44.7302 14.9229 39.7587 20.0581C38.1711 21.698 38.1711 24.3018 39.7587 25.9417C44.7302 31.0769 39.86 39.5124 32.927 37.7746C30.713 37.2196 28.458 38.5215 27.8316 40.7164C25.8701 47.5894 16.1297 47.5894 14.1683 40.7164C13.5419 38.5215 11.2869 37.2196 9.07285 37.7746C2.1399 39.5124 -2.73031 31.0769 2.24117 25.9417C3.8288 24.3018 3.8288 21.698 2.24117 20.0581C-2.73031 14.9229 2.1399 6.48743 9.07285 8.22526C11.2869 8.78024 13.5419 7.47832 14.1683 5.28343ZM29.771 18.1702C30.2792 17.5603 30.1968 16.6539 29.5869 16.1456C28.977 15.6374 28.0706 15.7198 27.5623 16.3297L20.9239 24.2958C20.2132 25.1487 19.7767 25.667 19.4172 25.9916C19.2505 26.1422 19.1516 26.2022 19.1041 26.2251C19.0945 26.2298 19.0877 26.2326 19.0833 26.2342C19.079 26.2326 19.0721 26.2298 19.0625 26.2251C19.0151 26.2022 18.9162 26.1422 18.7494 25.9916C18.3899 25.667 17.9535 25.1487 17.2428 24.2958L14.4376 20.9297C13.9294 20.3198 13.023 20.2374 12.4131 20.7456C11.8032 21.2539 11.7208 22.1603 12.229 22.7702L15.0954 26.2098C15.7249 26.9655 16.2925 27.6467 16.8226 28.1254C17.3994 28.6463 18.126 29.1102 19.0833 29.1102C20.0407 29.1102 20.7672 28.6463 21.344 28.1254C21.8742 27.6467 22.4417 26.9655 23.0713 26.2099L29.771 18.1702Z" fill="linear-gradient(90deg, rgba(236, 0, 140, 1) 0%, rgba(252, 103, 103, 1) 100%)" fill-opacity="1"/>
</svg>
