<svg width="46" height="46" viewBox="0 0 46 46" fill="none" xmlns="http://www.w3.org/2000/svg">
<path fill-rule="evenodd" clip-rule="evenodd" d="M16.1682 5.28343C18.1297 -1.58959 27.8701 -1.58959 29.8316 5.28343C30.458 7.47832 32.713 8.78023 34.927 8.22526C41.8599 6.48743 46.7301 14.9229 41.7587 20.0581C40.171 21.698 40.171 24.3018 41.7587 25.9417C46.7301 31.0769 41.8599 39.5124 34.927 37.7746C32.713 37.2196 30.458 38.5215 29.8316 40.7164C27.8701 47.5894 18.1297 47.5894 16.1682 40.7164C15.5418 38.5215 13.2868 37.2196 11.0728 37.7746C4.13987 39.5124 -0.73034 31.0769 4.24114 25.9417C5.82877 24.3018 5.82877 21.698 4.24114 20.0581C-0.730338 14.9229 4.13987 6.48743 11.0728 8.22526C13.2868 8.78024 15.5418 7.47832 16.1682 5.28343ZM31.7709 18.1702C32.2792 17.5603 32.1968 16.6539 31.5869 16.1456C30.977 15.6374 30.0706 15.7198 29.5623 16.3297L22.9238 24.2958C22.2131 25.1487 21.7767 25.667 21.4172 25.9916C21.2504 26.1422 21.1515 26.2022 21.1041 26.2251C21.0945 26.2298 21.0876 26.2326 21.0833 26.2342C21.079 26.2326 21.0721 26.2298 21.0625 26.2251C21.0151 26.2022 20.9161 26.1422 20.7494 25.9916C20.3899 25.667 19.9534 25.1487 19.2428 24.2958L16.4376 20.9297C15.9294 20.3198 15.0229 20.2374 14.413 20.7456C13.8031 21.2539 13.7207 22.1603 14.229 22.7702L17.0953 26.2098C17.7249 26.9655 18.2925 27.6467 18.8226 28.1254C19.3994 28.6463 20.1259 29.1102 21.0833 29.1102C22.0406 29.1102 22.7672 28.6463 23.344 28.1254C23.8741 27.6467 24.4417 26.9655 25.0712 26.2099L31.7709 18.1702Z" fill="#FDFDFD"/>
</svg>
