<svg width="46" height="46" viewBox="0 0 46 46" fill="none" xmlns="http://www.w3.org/2000/svg">
<path fill-rule="evenodd" clip-rule="evenodd" d="M16.1683 5.28343C18.1298 -1.58959 27.8702 -1.58959 29.8317 5.28343C30.4581 7.47832 32.7131 8.78023 34.9271 8.22526C41.8601 6.48743 46.7303 14.9229 41.7588 20.0581C40.1711 21.698 40.1711 24.3018 41.7588 25.9417C46.7303 31.0769 41.8601 39.5124 34.9271 37.7746C32.7131 37.2196 30.4581 38.5215 29.8317 40.7164C27.8702 47.5894 18.1298 47.5894 16.1683 40.7164C15.542 38.5215 13.287 37.2196 11.0729 37.7746C4.13999 39.5124 -0.730217 31.0769 4.24126 25.9417C5.8289 24.3018 5.8289 21.698 4.24126 20.0581C-0.730216 14.9229 4.13999 6.48743 11.0729 8.22526C13.287 8.78024 15.542 7.47832 16.1683 5.28343ZM31.7711 18.1702C32.2793 17.5603 32.1969 16.6539 31.587 16.1456C30.9771 15.6374 30.0707 15.7198 29.5624 16.3297L22.9239 24.2958C22.2133 25.1487 21.7768 25.667 21.4173 25.9916C21.2506 26.1422 21.1517 26.2022 21.1042 26.2251C21.0946 26.2298 21.0878 26.2326 21.0834 26.2342C21.0791 26.2326 21.0722 26.2298 21.0626 26.2251C21.0152 26.2022 20.9163 26.1422 20.7495 25.9916C20.39 25.667 19.9536 25.1487 19.2429 24.2958L16.4377 20.9297C15.9295 20.3198 15.023 20.2374 14.4131 20.7456C13.8033 21.2539 13.7208 22.1603 14.2291 22.7702L17.0955 26.2098C17.725 26.9655 18.2926 27.6467 18.8227 28.1254C19.3995 28.6463 20.1261 29.1102 21.0834 29.1102C22.0408 29.1102 22.7673 28.6463 23.3441 28.1254C23.8742 27.6467 24.4418 26.9655 25.0714 26.2099L31.7711 18.1702Z" fill="url(#paint0_linear_3165_620)"/>
<defs>
<linearGradient id="paint0_linear_3165_620" x1="2.20874" y1="22.9999" x2="43.7913" y2="22.9999" gradientUnits="userSpaceOnUse">
<stop stop-color="#EC008C"/>
<stop offset="1" stop-color="#FC6767"/>
</linearGradient>
</defs>
</svg>
